<svg width="64" viewBox="0 0 327 327" fill="none" xmlns="http://www.w3.org/2000/svg">
<circle cx="163.5" cy="163.5" r="163.5" fill="black"/>
<path d="M290.056 206.086C284.293 204.936 281.663 193.767 284.181 181.14C286.701 168.513 293.414 159.209 299.179 160.359C304.94 161.509 307.57 172.677 305.051 185.304C302.531 197.931 295.819 207.236 290.056 206.086ZM271.431 270.971C262.327 280.076 253.963 286.474 252.751 285.261C251.539 284.05 257.937 275.686 267.041 266.581C276.146 257.477 284.51 251.079 285.721 252.291C286.934 253.503 280.536 261.867 271.431 270.971ZM241.474 236.439C230.324 242.876 217.227 241.069 212.223 232.4C207.219 223.733 212.201 211.486 223.351 205.049C234.503 198.61 247.599 200.419 252.604 209.086C257.609 217.754 252.626 230 241.474 236.439ZM185.584 293.526C172.801 295.07 161.801 291.041 161.014 284.53C160.229 278.017 169.953 271.486 182.737 269.941C195.52 268.399 206.52 272.426 207.307 278.939C208.093 285.451 198.367 291.983 185.584 293.526ZM145.711 151.607C145.711 138.731 156.15 128.294 169.026 128.294C181.901 128.294 192.34 138.731 192.34 151.607C192.34 164.484 181.901 174.921 169.026 174.921C156.15 174.921 145.711 164.484 145.711 151.607ZM141.077 238.143C137.103 247.329 123.564 250.311 110.839 244.806C98.1143 239.3 91.02 227.39 94.9943 218.204C98.9686 209.019 112.506 206.034 125.231 211.54C137.957 217.046 145.051 228.956 141.077 238.143ZM114.143 303.871C113.341 305.387 103.464 301.737 92.0814 295.719C80.6986 289.7 72.1214 283.593 72.9229 282.077C73.7243 280.561 83.6014 284.211 94.9843 290.23C106.367 296.249 114.944 302.356 114.143 303.871ZM68.2929 152.926C58.4143 151.319 52.0814 139.713 54.15 127.004C56.2171 114.296 65.9029 105.296 75.7814 106.904C85.66 108.511 91.9929 120.117 89.9243 132.826C87.8572 145.534 78.1714 154.534 68.2929 152.926ZM44.3586 228.537C38.8343 230.54 30.7986 222.35 26.41 210.246C22.0229 198.14 22.9443 186.703 28.4686 184.701C33.9928 182.699 42.0286 190.889 46.4172 202.993C50.8043 215.099 49.8828 226.536 44.3586 228.537ZM69.3557 50.7614C79.4057 42.7114 89.1257 38.1514 91.0672 40.5757C93.0086 42.9985 86.4357 51.4886 76.3857 59.5371C66.3357 67.5871 56.6143 72.1471 54.6729 69.7228C52.7329 67.3 59.3057 58.81 69.3557 50.7614ZM155.444 37.82C168.321 37.82 178.759 45.9328 178.759 55.9428C178.759 65.9514 168.321 74.0657 155.444 74.0657C142.569 74.0657 132.131 65.9514 132.131 55.9428C132.131 45.9328 142.569 37.82 155.444 37.82ZM214.233 31.6186C216.27 28.09 226.961 30.45 238.111 36.8871C249.263 43.3257 256.651 51.4043 254.613 54.9328C252.576 58.4614 241.886 56.1028 230.734 49.6643C219.584 43.2271 212.196 35.1471 214.233 31.6186ZM266.529 104.424C272.967 115.576 271.159 128.671 262.491 133.676C253.823 138.681 241.577 133.699 235.139 122.547C228.701 111.396 230.509 98.3 239.177 93.2957C247.846 88.2914 260.091 93.2728 266.529 104.424ZM164 12C80.0514 12 12 80.0528 12 164C12 247.947 80.0514 316 164 316C247.947 316 316 247.947 316 164C316 80.0528 247.947 12 164 12Z" fill="#CCFF00"/>
</svg>