<svg width="4000" height="77" viewBox="0 0 4000 77" fill="none" xmlns="http://www.w3.org/2000/svg">
<path fill-rule="evenodd" clip-rule="evenodd" d="M2031.52 17.6859C2037.15 26.2703 2045.31 34.5645 2055.58 34.5645H3996.15C3998.27 34.5645 4000 36.29 4000 38.4184V38.4184C4000 40.5469 3998.27 42.2724 3996.15 42.2724H2055.58C2045.31 42.2724 2037.15 50.5663 2031.52 59.1506C2024.76 69.4584 2013.1 76.2658 1999.85 76.2658C1986.6 76.2658 1974.94 69.4584 1968.18 59.1506C1962.55 50.5663 1954.38 42.2724 1944.11 42.2724H3.85405C1.72557 42.2724 0 40.5469 0 38.4184V38.4184C0 36.29 1.72547 34.5645 3.85394 34.5645H1944.11C1954.38 34.5645 1962.55 26.2703 1968.18 17.6859C1974.94 7.37785 1986.6 0.570312 1999.85 0.570312C2013.1 0.570312 2024.76 7.37785 2031.52 17.6859Z" fill="white"/>
</svg>
